<?xml version="1.0" encoding="UTF-8"?>
<svg id="Capa_2" data-name="Capa 2" xmlns="http://www.w3.org/2000/svg" viewBox="0 0 65.5 91.69">
  <defs>
    <style>
      .cls-1 {
        fill: #ff4939;
      }

      .cls-2 {
        fill: #f72911;
      }

      .cls-3 {
        fill: #009a24;
      }
    </style>
  </defs>
  <g id="Capa_1-2" data-name="Capa 1">
    <path class="cls-3" d="m45.61,5.05h6.99c0,6.1-4.96,11.06-11.06,11.06h-6.99c0-6.1,4.96-11.06,11.06-11.06Z" transform="translate(12.31 42.73) rotate(-59.45)"/>
    <path class="cls-3" d="m56.94,15.82h6.99c0,6.1-4.96,11.06-11.06,11.06h-6.99c0-6.1,4.96-11.06,11.06-11.06Z" transform="translate(18.47 -24.95) rotate(30.55)"/>
    <path class="cls-2" d="m13.68,45.39c0,7.56,6.12,13.68,13.67,13.69v32.61L4.77,60.82l-.03-.05c-.77-1.12-1.45-2.29-2.04-3.52l-.02-.04c-1.72-3.58-2.68-7.59-2.68-11.82,0-15.12,12.24-27.35,27.35-27.36v13.68c-7.55,0-13.67,6.12-13.67,13.68Z"/>
    <path class="cls-1" d="m54.71,45.39c0,4.23-.96,8.24-2.68,11.82l-.02.04c-.57,1.19-1.23,2.34-1.97,3.43l-.07.11-22.62,30.9v-32.61h0c7.54,0,13.66-6.13,13.66-13.69s-6.12-13.68-13.66-13.68h0v-13.68h0c15.1,0,27.35,12.24,27.35,27.36Z"/>
    <path class="cls-1" d="m27.35,37.11v16.57c-4.57,0-8.28-3.71-8.28-8.28s3.71-8.29,8.28-8.29Z"/>
    <path class="cls-2" d="m35.63,45.4c0,4.57-3.71,8.28-8.28,8.28v-16.57c4.57,0,8.28,3.71,8.28,8.29Z"/>
  </g>
</svg>